<svg viewBox="0 0 500 500" xmlns="http://www.w3.org/2000/svg">
    <defs></defs>
    <ellipse style="paint-order: fill; fill: rgba(216, 216, 216, 0); stroke-width: 20px; stroke: rgb(143, 143, 143);" cx="250.052" cy="249.981" rx="242.796" ry="242.685"></ellipse>
    <path style="fill: rgb(216, 216, 216); stroke-width: 20px;" d="M 499.974 0.169 L 1.903 498.452"></path>
    <path d="M 503.864 4.057 L 349.361 158.626 C 346.876 155.928 344.282 153.332 341.587 150.844 L 496.084 -3.719 Z M 5.793 502.34 L -1.987 494.564 L 150.95 341.561 C 153.442 344.254 156.041 346.844 158.742 349.326 Z" style="fill: rgb(143, 143, 143);"></path>
    <ellipse style="paint-order: fill; fill: rgba(216, 216, 216, 0); stroke-width: 20px; stroke: rgb(143, 143, 143);" cx="250.052" cy="249.981" rx="134.965" ry="134.904"></ellipse>
    <path d="M 503.865 4.057 L 349.361 158.626 C 346.876 155.928 344.282 153.332 341.587 150.844 L 496.085 -3.719 L 503.865 4.057 Z M 5.792 502.341 L -1.988 494.565 L 150.95 341.562 C 153.442 344.255 156.041 346.845 158.742 349.327 L 5.792 502.341 Z" style="fill: rgb(143, 143, 143);" transform="matrix(0, 1, -1, 0, 500.249497, -1.627527)"></path>
</svg>